<svg id="GOOGLE_ICON" data-name="GOOGLE ICON" xmlns="http://www.w3.org/2000/svg" viewBox="0 0 1516.42 1551.34"><defs><style>.cls-1{fill:#34a853;}.cls-2{fill:#fbbc05;}.cls-3{fill:#ea4335;}.cls-4{fill:#4285f4;}</style></defs><g id="ICON"><path class="cls-1" d="M1612.91,1670.24c-122.48,115.63-296.24,185.43-523.77,185.43-292,0-555.55-173.7-684.86-426.94L661,1227.32C720.44,1413.59,889.67,1548,1089.14,1548c111.64,0,201.83-27.86,271.36-75.78Z" transform="translate(-320.24 -304.33)"/><path class="cls-2" d="M638.15,1080A483.39,483.39,0,0,0,661,1227.32L404.28,1428.73a765.52,765.52,0,0,1,0-697.46L661,932.69A483.33,483.33,0,0,0,638.15,1080Z" transform="translate(-320.24 -304.33)"/><path class="cls-3" d="M1611.21,512.34,1393.28,727.15C1315.81,655.46,1211.4,612,1089.14,612,889.66,612,720.44,746.41,661,932.69L404.29,731.27C533.59,478,797.16,304.33,1089.14,304.33,1301.39,304.33,1481.18,383.28,1611.21,512.34Z" transform="translate(-320.24 -304.33)"/><path class="cls-4" d="M1836.66,1080a1055.67,1055.67,0,0,1-11.81,159.67c-26.19,171-96.14,321.26-211.94,430.57L1360.5,1472.18c79.79-55,132.38-136.42,159-232.51H1099.41V952.3h728.07A884.61,884.61,0,0,1,1836.66,1080Z" transform="translate(-320.24 -304.33)"/></g></svg>